<?xml version="1.0" standalone="no"?>
<!DOCTYPE svg PUBLIC "-//W3C//DTD SVG 20010904//EN"
 "http://www.w3.org/TR/2001/REC-SVG-20010904/DTD/svg10.dtd">
<svg version="1.0" xmlns="http://www.w3.org/2000/svg"
 width="662.000000pt" height="1280.000000pt" viewBox="0 0 662.000000 1280.000000"
 preserveAspectRatio="xMidYMid meet">
<g transform="translate(0.000000,1280.000000) scale(0.100000,-0.100000)"
fill="#000000" stroke="none">
<path d="M4004 12780 c-249 -40 -432 -113 -624 -247 -94 -66 -256 -234 -323
-335 -97 -145 -153 -277 -210 -493 l-13 -50 -79 -17 c-44 -9 -85 -13 -92 -10
-6 4 -34 39 -61 77 -163 231 -409 390 -701 451 -101 21 -301 21 -412 0 -349
-66 -651 -295 -804 -611 -78 -162 -108 -299 -108 -495 0 -301 99 -550 302
-763 131 -138 287 -237 465 -296 l81 -28 3 -66 c3 -63 2 -67 -21 -72 -13 -4
-66 -5 -118 -2 -85 3 -107 9 -227 55 -124 49 -137 52 -222 52 -50 0 -90 -2
-90 -4 0 -6 279 -588 284 -593 2 -2 25 2 51 9 41 11 52 20 81 65 l34 53 99 0
c55 0 106 -3 115 -6 14 -6 16 -77 16 -705 l0 -699 168 0 c92 0 173 -4 180 -9
11 -7 11 -29 -2 -127 -25 -185 -27 -192 -42 -198 -8 -3 -204 -42 -435 -86
l-420 -80 -89 45 c-49 25 -102 45 -117 44 -16 0 -172 -28 -348 -63 -254 -49
-319 -65 -316 -77 2 -7 13 -88 25 -178 12 -97 26 -166 32 -168 7 -2 155 23
329 57 174 33 322 60 327 60 6 0 49 38 97 84 l86 84 380 82 c209 45 416 90
459 99 44 10 83 24 87 32 5 8 22 97 38 198 17 101 33 186 36 190 4 3 777 8
1718 11 l1712 5 0 1155 0 1155 -137 5 c-75 3 -140 8 -144 12 -4 4 34 51 85
103 191 201 306 415 363 678 32 149 32 400 -1 546 -61 277 -197 521 -396 709
-174 165 -415 294 -640 341 -212 45 -292 48 -461 21z m-984 -2052 c16 -24 46
-67 67 -97 21 -30 77 -95 126 -145 48 -49 87 -93 87 -97 0 -16 -48 -19 -350
-19 -175 0 -325 3 -334 6 -22 9 -20 19 13 67 38 56 96 172 111 225 7 23 18 46
24 51 9 7 173 45 218 50 5 1 21 -18 38 -41z m1991 -2223 c41 -22 69 -71 69
-124 0 -37 -6 -49 -39 -82 -32 -33 -45 -39 -80 -39 -54 0 -97 22 -121 63 -67
109 57 240 171 182z"/>
<path d="M6267 10305 l-338 -205 -264 0 -265 0 0 -515 0 -515 266 0 267 0 338
-205 c186 -113 340 -205 343 -205 3 0 6 416 6 925 0 509 -3 925 -7 925 -5 0
-160 -93 -346 -205z"/>
<path d="M2472 7718 l3 -223 55 -5 c52 -5 55 -6 52 -30 -2 -14 -55 -279 -117
-590 -63 -311 -182 -902 -264 -1315 -83 -412 -155 -760 -161 -772 -8 -20 -17
-23 -60 -23 l-50 0 0 -134 0 -134 25 -6 c14 -4 25 -10 25 -15 0 -11 -789
-3931 -796 -3953 -4 -13 9 -19 70 -34 42 -10 78 -16 80 -13 2 2 248 902 546
1999 363 1340 547 1999 557 2008 9 6 38 12 65 12 l48 0 0 135 c0 115 -2 135
-15 135 -9 0 -18 6 -21 13 -3 8 95 380 216 828 122 448 240 882 262 964 38
142 51 176 63 163 5 -4 25 -322 145 -2253 28 -445 70 -1134 95 -1530 83 -1340
155 -2499 165 -2680 6 -99 13 -199 16 -222 l5 -43 95 0 94 0 0 30 c0 26 19
407 60 1185 5 105 24 453 40 775 44 856 89 1716 100 1945 6 110 15 268 21 350
5 83 14 254 19 380 5 127 20 444 34 705 14 261 37 705 51 985 27 552 32 615
45 615 5 0 14 -17 19 -37 6 -21 141 -519 301 -1108 l290 -1069 0 -133 c0 -132
0 -133 23 -133 13 0 31 -6 40 -12 15 -12 120 -392 929 -3378 105 -388 194
-709 199 -714 8 -9 149 22 149 33 0 3 -72 359 -159 791 -87 432 -270 1342
-407 2023 -272 1351 -258 1257 -186 1257 l32 0 0 135 0 135 -69 0 c-45 0 -72
5 -80 13 -9 11 -551 2672 -551 2706 0 5 21 11 48 13 l47 3 3 223 2 222 -1100
0 -1100 0 2 -222z m542 -259 c3 -17 6 -67 6 -110 0 -71 -29 -185 -335 -1316
-185 -681 -339 -1245 -344 -1253 -12 -23 -119 -27 -127 -5 -4 9 32 208 79 443
219 1092 437 2172 447 2220 l12 52 128 0 128 0 6 -31z m846 -5 c0 -20 -7 -163
-15 -318 -8 -154 -19 -366 -25 -471 -5 -104 -19 -368 -30 -585 -11 -217 -31
-603 -44 -857 -13 -254 -27 -466 -31 -472 -10 -17 -334 -15 -339 2 -3 6 -14
167 -25 357 -34 558 -100 1631 -121 1955 -17 276 -18 305 -3 363 l15 62 309 0
309 0 0 -36z m544 27 c11 -17 546 -2696 541 -2709 -7 -19 -125 -12 -136 8 -12
20 -729 2671 -729 2693 0 15 16 17 159 17 88 0 162 -4 165 -9z m-2161 -3003
c14 -12 0 -73 -158 -654 -96 -353 -180 -655 -187 -670 -32 -79 -9 59 112 661
96 475 136 653 148 663 8 6 28 12 42 12 14 0 34 -6 43 -12z m2756 3 c9 -6 61
-240 152 -693 128 -633 154 -779 129 -737 -5 8 -95 330 -199 715 -172 634
-188 700 -174 712 19 14 72 16 92 3z m-1298 -33 c3 -24 -7 -243 -31 -698 -5
-96 -27 -539 -50 -985 -22 -445 -43 -825 -46 -844 -3 -20 -9 -30 -14 -25 -9 9
-22 204 -100 1464 -17 272 -39 626 -49 785 -10 160 -16 296 -14 303 4 9 44 12
154 12 112 0 149 -3 150 -12z"/>
</g>
</svg>
